<svg 
 xmlns="http://www.w3.org/2000/svg"
 xmlns:xlink="http://www.w3.org/1999/xlink"
 width="36px" height="56px">
<path 
 d="M33.132,28.843 C34.927,31.688 35.825,34.823 35.825,38.252 C35.825,43.084 34.087,47.233 30.614,50.699 C27.140,54.168 22.983,55.901 18.144,55.901 C13.303,55.901 9.146,54.168 5.673,50.699 C2.199,47.233 0.463,43.084 0.463,38.252 C0.463,34.823 1.359,31.688 3.156,28.843 C4.951,25.999 7.331,23.875 10.299,22.472 C7.020,14.603 5.381,9.966 5.381,8.564 L5.381,0.966 L30.907,0.966 L30.907,8.564 C30.907,9.655 29.268,14.290 25.989,22.472 C28.955,23.875 31.335,25.999 33.132,28.843 ZM12.055,21.654 C14.084,20.953 16.113,20.602 18.144,20.602 C20.252,20.602 22.242,20.953 24.116,21.654 C27.316,14.173 28.917,9.811 28.917,8.564 L28.917,2.953 L19.081,2.953 L19.081,16.394 L17.090,16.394 L17.090,2.953 L7.371,2.953 L7.371,8.564 C7.371,9.577 8.932,13.940 12.055,21.654 L12.055,21.654 ZM33.834,38.252 C33.834,33.888 32.292,30.187 29.209,27.147 C26.125,24.109 22.436,22.589 18.144,22.589 C13.850,22.589 10.161,24.109 7.078,27.147 C3.994,30.187 2.453,33.888 2.453,38.252 C2.453,42.616 3.994,46.317 7.078,49.355 C10.161,52.395 13.850,53.914 18.144,53.914 C22.436,53.914 26.125,52.395 29.209,49.355 C32.292,46.317 33.834,42.616 33.834,38.252 ZM29.970,38.252 C29.970,41.525 28.818,44.311 26.516,46.609 C24.213,48.908 21.423,50.057 18.144,50.057 C14.865,50.057 12.073,48.908 9.772,46.609 C7.468,44.311 6.317,41.525 6.317,38.252 C6.317,34.979 7.468,32.194 9.772,29.895 C12.073,27.597 14.865,26.447 18.144,26.447 C21.423,26.447 24.213,27.597 26.516,29.895 C28.818,32.194 29.970,34.979 29.970,38.252 ZM27.980,38.252 C27.980,35.603 27.023,33.304 25.111,31.356 C23.197,29.409 20.875,28.433 18.144,28.433 C15.410,28.433 13.089,29.409 11.177,31.356 C9.263,33.304 8.308,35.603 8.308,38.252 C8.308,40.901 9.263,43.201 11.177,45.148 C13.089,47.097 15.410,48.070 18.144,48.070 C20.875,48.070 23.197,47.097 25.111,45.148 C27.023,43.201 27.980,40.901 27.980,38.252 Z"/>
</svg>