<svg 
 xmlns="http://www.w3.org/2000/svg"
 xmlns:xlink="http://www.w3.org/1999/xlink"
 width="49px" height="49px">
<path 
 d="M48.206,0.472 L48.206,48.395 L0.255,48.395 L0.255,0.472 L48.206,0.472 ZM2.243,2.460 L2.243,11.459 L46.218,11.459 L46.218,2.460 L2.243,2.460 ZM46.218,46.407 L46.218,13.446 L2.243,13.446 L2.243,46.407 L46.218,46.407 ZM15.225,8.537 L18.266,8.537 L18.266,5.498 L15.225,5.498 L15.225,8.537 ZM30.195,8.537 L33.236,8.537 L33.236,5.498 L30.195,5.498 L30.195,8.537 ZM17.448,20.226 L19.202,20.226 L19.202,35.888 L17.097,35.888 L17.097,24.784 L13.237,24.784 L13.237,23.147 L13.588,23.147 C14.600,23.071 15.284,23.012 15.635,22.972 C15.986,22.934 16.355,22.720 16.746,22.330 C17.135,21.941 17.369,21.356 17.448,20.576 L17.448,20.226 ZM33.061,26.771 C34.035,27.785 34.523,29.108 34.523,30.745 C34.523,32.305 33.976,33.608 32.885,34.661 C31.793,35.713 30.506,36.238 29.026,36.238 C27.465,36.238 26.199,35.771 25.225,34.836 C24.249,33.900 23.763,32.694 23.763,31.212 L23.763,30.862 L25.868,30.862 L25.868,31.212 C25.868,32.148 26.179,32.908 26.804,33.492 C27.427,34.077 28.207,34.369 29.143,34.369 C30.155,34.369 30.956,33.999 31.540,33.258 C32.125,32.519 32.418,31.642 32.418,30.628 C32.418,29.617 32.105,28.779 31.482,28.116 C30.857,27.454 30.038,27.122 29.026,27.122 C27.699,27.122 26.687,27.668 25.985,28.758 L25.868,28.875 L24.114,28.875 L25.751,20.459 L33.821,20.459 L33.821,22.447 L27.272,22.447 L26.570,26.070 C27.348,25.525 28.207,25.251 29.143,25.251 C30.780,25.251 32.085,25.759 33.061,26.771 Z"/>
</svg>