<svg 
 xmlns="http://www.w3.org/2000/svg"
 xmlns:xlink="http://www.w3.org/1999/xlink"
 width="53px" height="47px">
<path 
 d="M27.312,35.940 L27.312,39.797 L36.679,45.057 L35.742,46.810 L26.259,41.550 L16.775,46.810 L15.838,45.057 L25.205,39.797 L25.205,35.940 L0.266,35.940 L0.266,0.057 L52.251,0.057 L52.251,35.940 L27.312,35.940 ZM2.257,33.953 L50.260,33.953 L50.260,2.044 L2.257,2.044 L2.257,33.953 ZM29.303,7.771 L31.176,8.356 L25.673,26.823 L19.234,17.940 L15.019,26.239 L9.399,14.784 L6.237,26.472 L4.247,26.005 L8.813,9.290 L15.019,21.797 L18.999,14.082 L24.971,22.382 L29.303,7.771 ZM44.523,13.732 C45.694,14.901 46.280,16.344 46.280,18.057 C46.280,19.693 45.694,21.095 44.523,22.264 C43.353,23.433 41.907,24.018 40.191,24.018 C38.552,24.018 37.147,23.433 35.976,22.264 C34.806,21.095 34.220,19.693 34.220,18.057 C34.220,16.344 34.806,14.901 35.976,13.732 C37.147,12.563 38.552,11.979 40.191,11.979 C41.907,11.979 43.353,12.563 44.523,13.732 ZM43.060,20.862 C43.880,20.084 44.289,19.149 44.289,18.057 C44.289,16.966 43.880,16.032 43.060,15.251 C42.240,14.474 41.284,14.082 40.191,14.082 C39.097,14.082 38.161,14.474 37.381,15.251 C36.600,16.032 36.211,16.966 36.211,18.057 C36.211,19.149 36.620,20.084 37.440,20.862 C38.260,21.642 39.176,22.031 40.191,22.031 C41.284,22.031 42.240,21.642 43.060,20.862 Z"/>
</svg>