<svg 
 xmlns="http://www.w3.org/2000/svg"
 xmlns:xlink="http://www.w3.org/1999/xlink"
 width="47px" height="49px">
<path 
 d="M45.043,8.268 C44.301,9.167 43.347,9.733 42.177,9.967 L42.177,44.063 L40.189,44.063 L40.189,9.967 C39.020,9.733 38.064,9.147 37.324,8.209 C36.582,7.272 36.213,6.217 36.213,5.046 C36.213,3.640 36.699,2.450 37.675,1.472 C38.649,0.496 39.838,0.008 41.242,0.008 C42.566,0.008 43.716,0.496 44.692,1.472 C45.666,2.450 46.154,3.640 46.154,5.046 C46.154,6.296 45.783,7.371 45.043,8.268 ZM43.288,7.213 C43.873,6.627 44.165,5.906 44.165,5.046 C44.165,4.187 43.873,3.464 43.288,2.878 C42.704,2.292 42.020,1.999 41.242,1.999 C40.383,1.999 39.663,2.292 39.078,2.878 C38.493,3.464 38.201,4.187 38.201,5.046 C38.201,5.906 38.493,6.627 39.078,7.213 C39.663,7.799 40.383,8.092 41.242,8.092 C42.020,8.092 42.704,7.799 43.288,7.213 ZM9.138,39.844 C9.878,40.782 10.249,41.836 10.249,43.008 C10.249,44.414 9.761,45.606 8.787,46.582 C7.811,47.560 6.623,48.047 5.220,48.047 C3.893,48.047 2.744,47.560 1.770,46.582 C0.794,45.606 0.308,44.414 0.308,43.008 C0.308,41.760 0.677,40.685 1.419,39.786 C2.159,38.889 3.115,38.322 4.284,38.087 L4.284,3.991 L6.272,3.991 L6.272,38.087 C7.442,38.322 8.396,38.907 9.138,39.844 ZM7.384,45.176 C7.968,44.590 8.261,43.869 8.261,43.008 C8.261,42.150 7.968,41.426 7.384,40.840 C6.799,40.255 6.077,39.962 5.220,39.962 C4.440,39.962 3.758,40.255 3.173,40.840 C2.589,41.426 2.296,42.150 2.296,43.008 C2.296,43.869 2.589,44.590 3.173,45.176 C3.758,45.762 4.440,46.054 5.220,46.054 C6.077,46.054 6.799,45.762 7.384,45.176 ZM27.149,20.863 C27.889,21.801 28.260,22.855 28.260,24.027 C28.260,25.199 27.889,26.253 27.149,27.190 C26.407,28.128 25.453,28.714 24.283,28.948 L24.283,44.063 L22.178,44.063 L22.178,28.948 C21.009,28.714 20.053,28.128 19.313,27.190 C18.571,26.253 18.202,25.199 18.202,24.027 C18.202,22.855 18.571,21.801 19.313,20.863 C20.053,19.926 21.009,19.340 22.178,19.105 L22.178,3.991 L24.283,3.991 L24.283,19.105 C25.453,19.340 26.407,19.926 27.149,20.863 ZM26.272,24.027 C26.272,23.247 25.959,22.544 25.336,21.918 C24.711,21.293 24.009,20.981 23.231,20.981 C22.451,20.981 21.749,21.293 21.126,21.918 C20.501,22.544 20.190,23.247 20.190,24.027 C20.190,24.809 20.501,25.511 21.126,26.136 C21.749,26.762 22.451,27.073 23.231,27.073 C24.009,27.073 24.711,26.762 25.336,26.136 C25.959,25.511 26.272,24.809 26.272,24.027 Z"/>
</svg>