<svg aria-hidden="true" style="position: absolute; width: 0; height: 0; overflow: hidden;" version="1.1" xmlns="http://www.w3.org/2000/svg" xmlns:xlink="http://www.w3.org/1999/xlink">
<defs>
<symbol id="award" viewBox="0 0 32 32">
<path d="M24.647 16.482c1.026 1.626 1.539 3.417 1.539 5.377 0 2.761-0.993 5.132-2.978 7.113-1.985 1.982-4.361 2.973-7.126 2.973-2.766 0-5.142-0.99-7.126-2.973-1.985-1.981-2.977-4.351-2.977-7.113 0-1.959 0.512-3.751 1.539-5.377 1.026-1.625 2.386-2.839 4.082-3.641-1.874-4.497-2.81-7.146-2.81-7.947v-4.342h14.586v4.342c0 0.623-0.937 3.272-2.81 7.947 1.695 0.802 3.055 2.015 4.082 3.641zM12.603 12.374c1.159-0.401 2.319-0.601 3.479-0.601 1.205 0 2.342 0.201 3.413 0.601 1.829-4.275 2.743-6.767 2.743-7.48v-3.206h-5.621v7.681h-1.138v-7.681h-5.554v3.206c0 0.579 0.892 3.072 2.677 7.48v0zM25.048 21.858c0-2.494-0.881-4.609-2.643-6.346-1.762-1.736-3.87-2.605-6.323-2.605-2.454 0-4.562 0.869-6.323 2.605-1.762 1.737-2.643 3.852-2.643 6.346s0.881 4.609 2.643 6.345c1.762 1.737 3.87 2.605 6.323 2.605 2.453 0 4.561-0.868 6.323-2.605 1.762-1.736 2.643-3.851 2.643-6.345zM22.84 21.858c0 1.87-0.658 3.462-1.974 4.775s-2.91 1.97-4.784 1.97-3.469-0.657-4.784-1.97c-1.317-1.313-1.974-2.905-1.974-4.775s0.658-3.462 1.974-4.775c1.315-1.313 2.91-1.97 4.784-1.97s3.468 0.657 4.784 1.97c1.315 1.314 1.974 2.905 1.974 4.775zM21.703 21.858c0-1.514-0.547-2.827-1.639-3.941-1.094-1.113-2.421-1.67-3.981-1.67-1.562 0-2.889 0.558-3.981 1.67-1.094 1.113-1.639 2.427-1.639 3.941s0.546 2.828 1.639 3.941c1.093 1.114 2.419 1.67 3.981 1.67 1.561 0 2.887-0.556 3.981-1.67 1.093-1.113 1.639-2.427 1.639-3.941z"></path>
</symbol>
<symbol id="check" viewBox="0 0 32 32">
<path d="M31.38 15.981c0 4.294-1.518 7.966-4.55 11.016-3.034 3.050-6.687 4.574-10.957 4.574-4.272 0-7.924-1.524-10.957-4.574s-4.55-6.722-4.55-11.016 1.516-7.966 4.55-11.017c3.033-3.049 6.686-4.575 10.957-4.575 4.27 0 7.923 1.526 10.957 4.575 3.032 3.050 4.55 6.722 4.55 11.017zM30.142 15.981c0-3.953-1.395-7.332-4.187-10.139s-6.152-4.208-10.083-4.208-7.293 1.403-10.083 4.208c-2.792 2.807-4.187 6.185-4.187 10.139 0 3.952 1.395 7.332 4.187 10.137 2.79 2.807 6.152 4.208 10.083 4.208s7.292-1.402 10.083-4.208c2.791-2.805 4.187-6.185 4.187-10.137zM24.973 10.417c0.437 0.439 0.412 0.88-0.073 1.318l-10.629 10.394c-0.146 0.147-0.34 0.219-0.582 0.219-0.292 0-0.51-0.073-0.656-0.219l-4.15-4.172c-0.437-0.439-0.437-0.878 0-1.317s0.874-0.439 1.31 0l3.495 3.512 9.974-9.735c0.437-0.439 0.873-0.439 1.31 0z"></path>
</symbol>
<symbol id="clients" viewBox="0 0 32 32">
<path d="M6.086 18.805c-2.19 2.209-3.285 4.868-3.285 7.976v2.515h13.814v1.227h-15.103v-3.743c0-2.862 0.86-5.419 2.579-7.668s3.888-3.722 6.508-4.418c-1.228-0.654-2.231-1.574-3.009-2.76s-1.166-2.516-1.166-3.988c0-2.086 0.746-3.865 2.241-5.337s3.264-2.209 5.311-2.209c2.088 0 3.868 0.737 5.341 2.209s2.21 3.251 2.21 5.337c0 1.472-0.379 2.813-1.136 4.018-0.758 1.207-1.771 2.116-3.039 2.73 2.128 0.532 4.031 1.637 5.71 3.313h-1.903c-2.088-1.676-4.442-2.515-7.061-2.515-3.152 0-5.823 1.104-8.012 3.313zM14.098 14.204c1.759 0 3.254-0.603 4.482-1.81 1.228-1.205 1.842-2.688 1.842-4.447 0-1.758-0.614-3.241-1.842-4.448-1.228-1.205-2.723-1.81-4.482-1.81s-3.245 0.604-4.451 1.81c-1.208 1.207-1.811 2.69-1.811 4.448 0 1.759 0.603 3.242 1.811 4.447 1.207 1.207 2.691 1.81 4.451 1.81zM30.49 28.070h-3.807v3.742h-1.228v-3.742h-3.807v-1.289h3.807v-3.742h1.228v3.742h3.807v1.289z"></path>
</symbol>
<symbol id="clock" viewBox="0 0 32 32">
<path d="M1.318 15.999c0 4.084 1.421 7.554 4.264 10.406 2.842 2.854 6.296 4.282 10.362 4.282s7.521-1.427 10.363-4.282c2.842-2.853 4.264-6.322 4.264-10.406 0-4.082-1.422-7.551-4.264-10.406s-6.297-4.282-10.363-4.282-7.521 1.428-10.362 4.282c-2.843 2.854-4.264 6.323-4.264 10.406zM31.879 15.999c0 4.418-1.557 8.188-4.669 11.313s-6.867 4.688-11.266 4.688c-4.398 0-8.153-1.563-11.266-4.688s-4.668-6.895-4.668-11.313c0-4.416 1.556-8.187 4.668-11.312s6.867-4.688 11.266-4.688 8.154 1.563 11.266 4.688c3.112 3.125 4.669 6.896 4.669 11.312zM25.779 9.874l-1.058-1.062-8.776 8.938-6.099-6.25-1.058 1.062 7.158 7.063 9.834-9.75zM15.945 2.937c-0.29 0-0.539 0.105-0.746 0.313s-0.311 0.459-0.311 0.75c0 0.292 0.103 0.542 0.311 0.75s0.456 0.313 0.746 0.313 0.539-0.104 0.747-0.313c0.207-0.208 0.311-0.458 0.311-0.75s-0.104-0.542-0.311-0.75c-0.208-0.208-0.457-0.313-0.747-0.313zM15.945 26.938c-0.29 0-0.539 0.104-0.746 0.312s-0.311 0.459-0.311 0.75c0 0.293 0.103 0.542 0.311 0.75 0.207 0.21 0.456 0.313 0.746 0.313s0.539-0.103 0.747-0.313c0.207-0.208 0.311-0.458 0.311-0.75 0-0.29-0.104-0.541-0.311-0.75s-0.457-0.312-0.747-0.312zM3.995 14.937c-0.291 0-0.54 0.105-0.747 0.313s-0.311 0.459-0.311 0.75c0 0.293 0.103 0.542 0.311 0.75s0.456 0.313 0.747 0.313c0.29 0 0.538-0.104 0.746-0.313s0.311-0.458 0.311-0.75c0-0.29-0.104-0.541-0.311-0.75s-0.457-0.313-0.746-0.313zM27.895 14.937c-0.29 0-0.539 0.105-0.746 0.313-0.209 0.209-0.311 0.459-0.311 0.75 0 0.293 0.102 0.542 0.311 0.75 0.207 0.209 0.456 0.313 0.746 0.313s0.539-0.104 0.747-0.313c0.207-0.208 0.311-0.458 0.311-0.75 0-0.29-0.104-0.541-0.311-0.75s-0.457-0.313-0.747-0.313z"></path>
</symbol>
<symbol id="deadline" viewBox="0 0 32 32">
<path d="M31.481 0.308v31.297h-31.315v-31.297h31.315zM1.465 1.607v5.877h28.718v-5.877h-28.718zM30.183 30.307v-21.526h-28.718v21.526h28.718zM9.943 5.575h1.986v-1.985h-1.986v1.985zM19.719 5.575h1.986v-1.985h-1.986v1.985zM11.395 13.209h1.145v10.228h-1.375v-7.252h-2.521v-1.069h0.229c0.661-0.050 1.108-0.088 1.337-0.114 0.229-0.025 0.47-0.165 0.726-0.419 0.254-0.254 0.407-0.636 0.458-1.145v-0.229zM21.591 17.483c0.636 0.662 0.955 1.526 0.955 2.595 0 1.019-0.357 1.87-1.070 2.557s-1.554 1.030-2.52 1.030c-1.019 0-1.846-0.305-2.482-0.916-0.637-0.611-0.955-1.399-0.955-2.367v-0.229h1.375v0.229c0 0.611 0.203 1.108 0.611 1.489 0.407 0.382 0.916 0.573 1.527 0.573 0.661 0 1.184-0.242 1.565-0.726 0.382-0.483 0.573-1.055 0.573-1.718 0-0.66-0.204-1.207-0.611-1.64-0.408-0.432-0.943-0.649-1.604-0.649-0.867 0-1.527 0.357-1.986 1.068l-0.076 0.076h-1.145l1.069-5.496h5.27v1.298h-4.277l-0.458 2.366c0.508-0.356 1.069-0.535 1.68-0.535 1.069 0 1.921 0.332 2.559 0.993z"></path>
</symbol>
<symbol id="design" viewBox="0 0 32 32">
<path d="M21 5.939l11-4.189v24.133l-11 4.189-10-4.001-11 4.189v-24.133l11-4.189 10 4.001zM11.5 25.195l9 3.563v-21.944l-9-3.563v21.944zM1 28.758l9.5-3.626v-21.882l-9.5 3.626v21.882zM31 3.251l-9.5 3.626v21.882l9.5-3.626v-21.882z"></path>
</symbol>
<symbol id="dolar" viewBox="0 0 32 32">
<path d="M31.26 15.999c0 4.31-1.524 7.988-4.573 11.037s-6.728 4.574-11.036 4.574c-4.308 0-7.987-1.525-11.035-4.574s-4.573-6.727-4.573-11.037c0-4.308 1.524-7.987 4.573-11.036s6.727-4.574 11.035-4.574c4.308 0 7.988 1.525 11.036 4.574s4.573 6.728 4.573 11.036zM29.979 15.999c0-3.983-1.392-7.367-4.176-10.152s-6.168-4.177-10.152-4.177-7.368 1.393-10.151 4.177c-2.785 2.785-4.176 6.169-4.176 10.152 0 3.984 1.392 7.369 4.176 10.153 2.783 2.785 6.167 4.177 10.151 4.177s7.367-1.392 10.152-4.177c2.784-2.783 4.176-6.168 4.176-10.153zM13.67 14.049c0.914 0.569 1.93 1.027 3.048 1.372s2.144 0.905 3.079 1.677c0.935 0.773 1.423 1.748 1.463 2.927 0 1.138-0.407 2.103-1.219 2.896s-1.931 1.271-3.354 1.433v2.074h-1.402v-2.256c-2.195-0.081-3.842-0.731-4.939-1.951l1.037-1.158 0.488 0.427c0.366 0.325 0.924 0.64 1.677 0.945s1.534 0.457 2.348 0.457c1.015 0 1.86-0.254 2.53-0.763 0.67-0.507 1.006-1.168 1.006-1.982 0-0.894-0.457-1.647-1.372-2.256-0.915-0.61-1.931-1.077-3.049-1.403s-2.134-0.864-3.049-1.616c-0.914-0.752-1.371-1.677-1.371-2.775 0-1.056 0.426-2.001 1.28-2.835s1.93-1.311 3.231-1.433v-2.256h1.463v2.256c1.829 0.082 3.211 0.59 4.146 1.524l-0.915 1.342-0.487-0.366c-0.326-0.244-0.814-0.488-1.463-0.732-0.651-0.243-1.302-0.366-1.951-0.366-1.058 0-1.921 0.265-2.591 0.793-0.67 0.529-1.006 1.179-1.006 1.951 0 0.814 0.457 1.505 1.372 2.074z"></path>
</symbol>
<symbol id="experience" viewBox="0 0 32 32">
<path d="M16.49 23.511v2.329l5.656 3.176-0.566 1.058-5.726-3.176-5.726 3.176-0.566-1.058 5.656-3.176v-2.329h-15.057v-21.665h31.387v21.665h-15.057zM1.363 22.311h28.983v-19.266h-28.983v19.266zM17.692 6.503l1.131 0.353-3.323 11.15-3.888-5.363-2.545 5.011-3.393-6.916-1.909 7.057-1.201-0.282 2.757-10.092 3.747 7.551 2.403-4.658 3.606 5.011 2.616-8.822zM26.882 10.102c0.707 0.706 1.061 1.577 1.061 2.611 0 0.988-0.354 1.834-1.061 2.54s-1.579 1.059-2.616 1.059c-0.99 0-1.838-0.353-2.545-1.059s-1.060-1.552-1.060-2.54c0-1.034 0.354-1.905 1.060-2.611s1.555-1.058 2.545-1.058c1.036 0 1.909 0.353 2.616 1.058zM25.998 14.407c0.495-0.47 0.742-1.034 0.742-1.694s-0.247-1.223-0.742-1.694c-0.495-0.469-1.072-0.706-1.732-0.706s-1.226 0.237-1.697 0.706c-0.472 0.472-0.706 1.035-0.706 1.694s0.247 1.224 0.742 1.694c0.495 0.471 1.048 0.706 1.661 0.706 0.66 0 1.237-0.235 1.732-0.706z"></path>
</symbol>
<symbol id="facebook" viewBox="0 0 32 32">
<path d="M30.251 1.749c1.165 1.167 1.749 2.583 1.749 4.25v20c0 1.666-0.585 3.085-1.749 4.25-1.167 1.167-2.586 1.749-4.252 1.749h-20c-1.666 0-3.083-0.582-4.25-1.749-1.167-1.165-1.749-2.583-1.749-4.25v-20c0-1.666 0.582-3.083 1.749-4.25s2.583-1.751 4.25-1.751h20c1.666 0 3.085 0.585 4.252 1.751zM20.499 12.687h-2.999v-1.623c0-0.501 0.073-0.855 0.22-1.065 0.145-0.207 0.51-0.311 1.092-0.311h1.626v-3.313h-2.624c-1.502 0-2.522 0.365-3.063 1.094-0.542 0.727-0.813 1.824-0.813 3.279v1.939h-2.436v3.311h2.436v9.626h3.563v-9.626h2.626l0.373-3.311z"></path>
</symbol>
<symbol id="facebook-ft" viewBox="0 0 32 32">
<path d="M30.637 0.967c0.483 0.484 0.726 1.351 0.726 2.601 0 10.765-0.021 18.85-0.061 24.254 0 1.25-0.252 2.126-0.756 2.63-0.505 0.506-1.382 0.757-2.631 0.757h-9.98c-0.686 0-1.17-0.122-1.451-0.363-0.283-0.242-0.404-0.705-0.363-1.39 0-1.17 0-2.913 0-5.233 0-2.317 0.020-4.062 0.061-5.231 0-0.605-0.101-1.018-0.302-1.24-0.202-0.221-0.585-0.312-1.149-0.271-0.566 0.081-1.412 0.081-2.54 0-0.484 0-0.727-0.183-0.727-0.546 0-0.402 0.243-0.604 0.727-0.604 0.201 0 0.492 0 0.876 0 0.383 0 0.726 0 1.028 0s0.595 0 0.877 0c0.484 0.040 0.817-0.040 0.998-0.243 0.181-0.201 0.251-0.522 0.212-0.967-0.082-1.169-0.082-2.298 0-3.387 0.039-1.29 0.462-2.248 1.27-2.873 0.806-0.626 1.855-0.836 3.145-0.635 1.007 0.12 1.915 0.383 2.722 0.786 0.039 0 0.081 0.021 0.121 0.061 0.523 0.242 0.726 0.524 0.605 0.846-0.202 0.444-0.626 0.524-1.271 0.242-1.088-0.484-2.097-0.726-3.023-0.726-1.21 0-1.935 0.585-2.178 1.754-0.121 0.444-0.191 0.908-0.212 1.391s-0.021 1.029 0 1.633c0.021 0.605 0.031 1.069 0.031 1.391 0 0.081 0 0.162 0 0.242 0.039 0.323 0.362 0.484 0.967 0.484h4.658c0.685 0 1.028 0.202 1.028 0.604 0 0.566-0.363 0.808-1.089 0.727-0.967 0-2.5-0.039-4.597-0.121-0.404-0.040-0.675 0.021-0.817 0.182s-0.212 0.444-0.212 0.846c0.081 3.347 0.081 6.714 0 10.101 0 0.767 0.363 1.15 1.089 1.15 0.967 0 1.975 0.010 3.023 0.030 1.049 0.021 2.217 0.051 3.509 0.091 1.29 0.040 2.298 0.060 3.025 0.060 0.805 0 1.331-0.13 1.572-0.393 0.242-0.261 0.383-0.815 0.423-1.663l0.182-23.951c0-1.089-0.121-1.743-0.363-1.966-0.242-0.22-0.928-0.352-2.056-0.392-5.202-0.161-13.045-0.243-23.528-0.243-0.967 0-1.553 0.111-1.754 0.333-0.202 0.222-0.343 0.837-0.423 1.845 0 0.040-0.061 7.983-0.182 23.83 0 1.089 0.13 1.755 0.393 1.996 0.262 0.243 0.917 0.362 1.965 0.362 2.338 0 4.072 0.022 5.202 0.062 0.847 0 1.29 0.201 1.331 0.604 0 0.484-0.423 0.727-1.27 0.727h-6.109c-1.734-0.082-2.642-1.028-2.722-2.843v-12.52h0.061v-12.34c0-1.21 0.242-2.056 0.726-2.54s1.31-0.704 2.479-0.665h24.133c1.249 0 2.117 0.243 2.601 0.726z"></path>
</symbol>
<symbol id="google-ft" viewBox="0 0 32 32">
<path d="M19.387 23.588c0.322 2.056-0.040 3.771-1.088 5.141-0.727 0.928-1.815 1.594-3.267 1.996-1.049 0.243-1.834 0.383-2.359 0.424h-3.023c-0.243 0-0.605-0.041-1.089-0.122-1.654-0.242-2.964-0.564-3.932-0.968-1.331-0.644-2.238-1.55-2.721-2.721-0.162-0.565-0.263-0.988-0.302-1.27v-1.211c0.039-0.079 0.060-0.16 0.060-0.242 0.040-0.523 0.201-1.048 0.484-1.572 0.121-0.243 0.201-0.383 0.242-0.423 0.201-0.081 0.413 0.060 0.636 0.423 0.221 0.363 0.271 0.685 0.151 0.967-0.242 0.484-0.323 1.19-0.242 2.117 0.16 1.129 0.765 1.977 1.815 2.54 0.604 0.362 1.249 0.605 1.935 0.726 1.41 0.362 3.165 0.505 5.261 0.424 1.089 0 2.056-0.141 2.904-0.424 1.169-0.322 2.056-0.907 2.661-1.754 0.443-0.685 0.665-1.612 0.665-2.783 0.040-1.37-0.463-2.519-1.511-3.447-0.082-0.081-0.182-0.122-0.302-0.122-2.339-0.281-4.335-0.422-5.988-0.422-1.573 0.081-2.843 0.262-3.811 0.544-0.081 0-0.191 0.021-0.332 0.060-0.141 0.041-0.252 0.082-0.332 0.122-0.121 0-0.253-0.081-0.393-0.243-0.141-0.161-0.242-0.322-0.302-0.483s-0.051-0.282 0.030-0.363c1.774-0.685 4.193-0.988 7.259-0.907 0.16 0 0.423 0.021 0.786 0.061 0.363 0.040 0.645 0.060 0.847 0.060-0.122-0.121-0.324-0.292-0.605-0.514-0.283-0.221-0.484-0.373-0.605-0.453-1.009-0.847-1.391-1.834-1.15-2.964 0-0.082-0.021-0.141-0.060-0.182h-0.121c-0.928 0.162-1.835 0.162-2.722 0-2.782-0.484-4.658-2.016-5.625-4.598-0.484-1.249-0.626-2.681-0.423-4.293 0.201-1.411 0.625-2.54 1.27-3.387 0.968-1.371 2.479-2.299 4.537-2.783 0.201-0.040 0.473-0.091 0.817-0.151 0.342-0.061 0.594-0.091 0.756-0.091 2.54-0.161 5.282-0.161 8.226 0 0.16 0 0.282 0.141 0.362 0.423 0.081 0.202 0.061 0.393-0.060 0.574-0.121 0.182-0.302 0.273-0.545 0.273h-2.843c-0.121 0-0.222 0.021-0.302 0.061 0.081 0.040 0.191 0.121 0.333 0.242 0.14 0.122 0.231 0.222 0.271 0.302 1.492 1.412 2.318 2.964 2.481 4.657 0.201 2.582-0.404 4.658-1.815 6.23-0.363 0.364-1.028 0.868-1.996 1.512-0.323 0.243-0.565 0.445-0.726 0.606-0.807 0.685-0.867 1.432-0.182 2.237 0.323 0.363 0.727 0.686 1.21 0.968 1.774 1.21 2.701 1.855 2.783 1.935v0c1.128 0.967 1.793 2.057 1.995 3.266v0zM15.516 11.915c0.685-0.685 1.128-1.755 1.331-3.206 0.161-1.532-0.040-2.761-0.605-3.689-1.088-1.935-2.54-3.044-4.354-3.327-1.694-0.242-3.307 0.022-4.839 0.787-1.29 0.646-2.138 1.612-2.54 2.904-0.323 0.766-0.484 1.733-0.484 2.903 0 1.129 0.282 2.199 0.847 3.205 1.169 1.977 3.044 2.965 5.625 2.965 1.694-0.040 3.366-0.887 5.020-2.54v0zM30.395 14.879v0.362c-0.161 0.324-0.463 0.484-0.907 0.484h-3.205c-0.283 0-0.423 0.121-0.423 0.362v3.267c0 0.604-0.202 0.906-0.605 0.906-0.444-0.079-0.666-0.382-0.666-0.906v-3.327c0-0.201-0.101-0.302-0.302-0.302h-3.326c-0.566 0-0.847-0.201-0.847-0.605 0-0.444 0.282-0.665 0.847-0.665h3.266c0.242 0 0.362-0.141 0.362-0.424v-3.508c0.081-0.443 0.302-0.625 0.666-0.545 0.403 0 0.605 0.182 0.605 0.545v1.511c0 0.162 0 0.384 0 0.666 0 0.283 0 0.544 0 0.787 0 0.242 0 0.465 0 0.666 0 0.202 0.121 0.302 0.362 0.302h3.266c0.403 0 0.705 0.141 0.907 0.423v0z"></path>
</symbol>
<symbol id="growth" viewBox="0 0 32 32">
<path d="M31.517 0.005v31.372h-31.35v-31.372h31.35zM1.467 1.305v24.409l3.823-4.438 3.899 2.602 6.499-9.183 5.888 4.668 8.64-12.396v-5.662h-28.75zM30.217 30.076v-20.812l-8.334 12.013-5.887-4.667-6.499 9.029-3.976-2.602-4.052 4.667v2.372h28.75z"></path>
</symbol>
<symbol id="hurt" viewBox="0 0 32 32">
<path d="M31.718 10.783c0 2.323-0.819 4.307-2.456 5.951l-13.262 12.582-13.261-12.458c-1.638-1.685-2.456-3.701-2.456-6.044s0.818-4.338 2.456-5.982c1.596-1.604 3.642-2.406 6.14-2.406 2.333 0 4.297 0.802 5.894 2.406 0.654 0.823 1.106 1.439 1.351 1.85 0.327-0.658 0.777-1.274 1.351-1.85 1.596-1.604 3.561-2.406 5.894-2.406s4.298 0.802 5.894 2.406c1.636 1.645 2.456 3.629 2.456 5.952zM30.367 10.629c0-1.974-0.696-3.659-2.088-5.057-1.31-1.397-2.988-2.097-5.035-2.097-2.005 0-3.704 0.7-5.096 2.097-0.328 0.411-0.675 0.884-1.043 1.418l-1.106 1.85-1.105-1.85c-0.245-0.41-0.594-0.883-1.043-1.418-1.392-1.397-3.091-2.097-5.096-2.097s-3.725 0.74-5.157 2.22c-1.392 1.398-2.088 3.084-2.088 5.057 0 2.015 0.696 3.722 2.088 5.119l12.402 11.903 12.402-11.903c1.309-1.315 1.965-3.063 1.965-5.242v0z"></path>
</symbol>
<symbol id="instagram" viewBox="0 0 32 32">
<path d="M30.251 1.749c1.165 1.167 1.749 2.583 1.749 4.25v20c0 1.666-0.585 3.085-1.749 4.25-1.167 1.167-2.586 1.749-4.252 1.749h-20c-1.666 0-3.083-0.582-4.25-1.749-1.167-1.165-1.749-2.583-1.749-4.25v-20c0-1.666 0.582-3.083 1.749-4.25s2.583-1.751 4.25-1.751h20c1.666 0 3.085 0.585 4.252 1.751zM25.999 6.75c0-0.501-0.25-0.751-0.749-0.751h-18.5c-0.499 0-0.751 0.25-0.751 0.751v18.5c0 0.499 0.252 0.749 0.751 0.749h18.5c0.499 0 0.749-0.25 0.749-0.749v-18.5zM20 12h4v-4.002h-4v4.002zM16 12c1.084 0 2.020 0.397 2.812 1.188 0.791 0.789 1.188 1.728 1.188 2.81 0 1.086-0.397 2.022-1.188 2.814-0.791 0.794-1.728 1.188-2.812 1.188s-2.022-0.395-2.812-1.188c-0.794-0.791-1.188-1.728-1.188-2.814 0-1.082 0.395-2.020 1.188-2.81 0.789-0.791 1.728-1.188 2.812-1.188zM21.813 14.999h2.187v8.998h-16v-8.998h2.187c-0.083 0.499-0.124 0.834-0.124 0.998 0 1.668 0.582 3.074 1.749 4.22 1.167 1.148 2.562 1.719 4.188 1.719s3.021-0.572 4.188-1.719c1.165-1.146 1.749-2.551 1.749-4.22 0-0.164-0.041-0.499-0.124-0.998v0z"></path>
</symbol>
<symbol id="instagram-ft" viewBox="0 0 32 32">
<path d="M31.484 28.185c0 1.089-0.222 1.855-0.666 2.299s-1.209 0.685-2.298 0.726h-25.101c-1.895 0-2.863-0.947-2.903-2.843v-6.169c0-0.727 0.221-1.089 0.666-1.089 0.362 0.041 0.544 0.404 0.544 1.089v5.866c0 1.291 0.625 1.935 1.875 1.935h24.799c1.249 0 1.875-0.605 1.875-1.815v-9.738c0-0.443-0.082-0.756-0.242-0.937-0.162-0.181-0.445-0.251-0.847-0.212-0.323 0.082-0.626 0.082-0.906 0-1.332-0.2-2.39-0.091-3.176 0.333-0.786 0.423-1.401 1.3-1.845 2.63-0.404 1.412-1.381 2.562-2.934 3.449s-3.054 1.249-4.506 1.088c-1.815-0.201-3.407-0.846-4.778-1.935s-2.259-2.439-2.661-4.053c-0.283-1.128-0.967-1.633-2.056-1.512h-4.476c-0.888 0.082-1.331-0.301-1.331-1.149v-13.548c0.081-1.572 1.028-2.359 2.843-2.359h25.282c1.895 0 2.843 0.948 2.843 2.843v25.1zM21.111 21.441c1.31-1.31 1.965-2.953 1.965-4.929 0-1.895-0.655-3.478-1.965-4.748-1.311-1.27-2.974-1.945-4.99-2.025-1.815-0.040-3.417 0.645-4.808 2.056s-2.087 3.023-2.087 4.838c0 1.855 0.716 3.488 2.148 4.899 1.431 1.412 3.033 2.037 4.808 1.876 1.975 0 3.618-0.655 4.929-1.966zM30.002 15.725c0.222-0.201 0.313-0.565 0.273-1.088-0.082-3.79-0.082-7.561 0-11.31 0-0.685-0.151-1.18-0.453-1.483-0.302-0.301-0.817-0.431-1.542-0.392h-24.738c-0.646 0-1.11 0.131-1.391 0.392-0.283 0.263-0.423 0.717-0.423 1.362v11.552c0 0.484 0.091 0.808 0.273 0.968 0.181 0.161 0.492 0.222 0.937 0.182 2.137 0 3.347 0.021 3.628 0.061 0.565 0.12 0.968 0.081 1.21-0.122 0.243-0.201 0.423-0.584 0.545-1.149 0.443-1.854 1.431-3.377 2.964-4.567 1.532-1.189 3.205-1.743 5.020-1.663s3.437 0.665 4.869 1.754c1.431 1.089 2.389 2.561 2.873 4.416 0.201 0.928 0.726 1.371 1.572 1.331 0.968-0.122 2.057-0.141 3.266-0.061 0.524 0.081 0.897 0.021 1.119-0.182zM27.854 4.233c0.243 0.283 0.363 1.129 0.363 2.54 0 1.331-0.162 2.168-0.484 2.509-0.323 0.344-1.11 0.515-2.359 0.515-1.291 0-2.108-0.182-2.45-0.544-0.343-0.363-0.514-1.25-0.514-2.662 0-1.371 0.14-2.177 0.423-2.419 0.282-0.243 1.189-0.363 2.722-0.363 1.289 0 2.056 0.142 2.298 0.423zM27.069 6.653c-0.041-0.685-0.172-1.159-0.393-1.421-0.222-0.262-0.657-0.312-1.301-0.152-0.645-0.121-1.11-0.069-1.391 0.152-0.282 0.222-0.404 0.675-0.362 1.361 0.039 0.726 0.151 1.231 0.332 1.512 0.182 0.283 0.614 0.404 1.301 0.363 0.685-0.040 1.158-0.182 1.421-0.423 0.261-0.243 0.393-0.705 0.393-1.391v0zM18.722 20.565c-0.041 0.161-0.031 0.271 0.030 0.331 0.061 0.062 0.020 0.132-0.121 0.213-0.142 0.081-0.222 0.131-0.243 0.151-0.021 0.021-0.111 0.071-0.271 0.152l-0.243 0.060c-0.928 0.283-1.553 0.404-1.875 0.363-1.613 0-2.984-0.696-4.113-2.086-1.129-1.391-1.473-2.852-1.028-4.386 0-0.039 0.020-0.14 0.060-0.302 0.040-0.16 0.081-0.281 0.121-0.362s0.1-0.151 0.182-0.213c0.081-0.060 0.201-0.069 0.363-0.029 0.403 0.040 0.564 0.423 0.483 1.149-0.282 1.693 0.141 3.014 1.271 3.961 1.128 0.949 2.52 1.202 4.173 0.757 0.685-0.242 1.089-0.161 1.21 0.243v0z"></path>
</symbol>
<symbol id="linkedin" viewBox="0 0 32 32">
<path d="M30.251 1.749c1.165 1.167 1.749 2.583 1.749 4.25v20c0 1.666-0.585 3.085-1.749 4.25-1.167 1.167-2.586 1.751-4.252 1.751h-20c-1.666 0-3.083-0.585-4.25-1.751-1.167-1.165-1.749-2.583-1.749-4.25v-20c0-1.666 0.582-3.083 1.749-4.25s2.583-1.751 4.25-1.751h20c1.666 0 3.085 0.585 4.252 1.751zM12 9.749h-4v13.999h4v-13.999zM12 6.999c0-0.499-0.177-0.939-0.531-1.312-0.354-0.375-0.802-0.563-1.344-0.563s-0.99 0.188-1.344 0.563c-0.354 0.373-0.531 0.813-0.531 1.312 0 0.542 0.177 0.99 0.531 1.342 0.354 0.356 0.802 0.533 1.344 0.533s0.99-0.177 1.344-0.533c0.354-0.352 0.531-0.8 0.531-1.342v0zM25.999 15.185c0-1.082-0.145-2.018-0.437-2.81-0.29-0.791-0.655-1.355-1.092-1.69-0.437-0.333-0.855-0.572-1.25-0.719-0.397-0.145-0.804-0.218-1.22-0.218-1.54 0-2.874 0.437-4 1.312v-1.312h-4v13.999h4v-8.623l0.126-0.437c0.126-0.292 0.384-0.585 0.781-0.877 0.397-0.29 0.907-0.437 1.532-0.437 1.041 0 1.562 0.585 1.562 1.751v8.623h4v-8.563z"></path>
</symbol>
<symbol id="mail" viewBox="0 0 32 32">
<path d="M27.5 27.217h-27.5v-18.006h27.5v18.006zM26.5 10.211h-25.5v16.005h25.5v-16.005zM5.5 8.211h-1v-3.5h27.5v18.005h-3.5v-1h2.5v-16.005h-25.5v2.5zM25 16.714h-4.5v-5.002h4.5v5.002zM24 12.712h-2.5v3.001h2.5v-3.001zM16 24.716h1v-13.004h-1v13.004zM2.5 13.712h12v-1h-12v1zM2.5 16.214h10.5v-1h-10.5v1zM2.5 18.715h11v-1.001h-11v1.001z"></path>
</symbol>
<symbol id="mobile" viewBox="0 0 32 32">
<path d="M20.291 29.878v-21.333h11.329v21.333h-11.329zM30.954 9.212h-9.997v2h9.997v-2zM30.954 11.878h-9.997v13.333h9.997v-13.333zM30.954 25.878h-9.997v3.334h9.997v-3.334zM25.956 26.544c0.277 0 0.513 0.098 0.708 0.292s0.292 0.431 0.292 0.708c0 0.278-0.097 0.514-0.292 0.708s-0.431 0.292-0.708 0.292c-0.278 0-0.514-0.097-0.708-0.292s-0.292-0.43-0.292-0.708c0-0.277 0.097-0.513 0.292-0.708s0.43-0.292 0.708-0.292zM25.956 27.878c0.222 0 0.334-0.111 0.334-0.334s-0.112-0.334-0.334-0.334c-0.223 0-0.334 0.112-0.334 0.334s0.111 0.334 0.334 0.334zM27.288 10.544h-2.665v-0.666h2.665v0.666zM0.537 1.434h19.549v28.444h-19.549v-28.444zM1.425 28.99h17.772v-4.445h-17.772v4.445zM1.425 23.657h17.772v-17.779h-17.772v17.779zM1.425 4.989h17.772v-2.667h-17.772v2.667zM8.534 3.211h3.554v0.889h-3.554v-0.889zM10.311 28.1c-0.37 0-0.685-0.129-0.944-0.389-0.259-0.258-0.388-0.574-0.388-0.944s0.129-0.685 0.388-0.944c0.259-0.259 0.574-0.389 0.944-0.389s0.685 0.13 0.944 0.389c0.259 0.26 0.389 0.575 0.389 0.944s-0.13 0.686-0.389 0.944c-0.26 0.26-0.575 0.389-0.944 0.389zM10.311 26.323c-0.297 0-0.444 0.148-0.444 0.444 0 0.297 0.148 0.444 0.444 0.444s0.444-0.147 0.444-0.444c0-0.296-0.149-0.444-0.444-0.444z"></path>
</symbol>
<symbol id="perfection" viewBox="0 0 32 32">
<path d="M0.168 18.292h13.076v13.085h-13.076v-13.085zM1.467 30.076h10.476v-10.482h-10.476v10.482zM24.944 7.504l-9.559 9.641-0.918-0.918 9.635-9.641h-8.259v-1.301h10.4v10.407h-1.3v-8.187zM31.52 0.005v31.372h-15.676v-1.302h14.377v-28.771h-28.753v14.386h-1.3v-15.686h31.352z"></path>
</symbol>
<symbol id="photo" viewBox="0 0 32 32">
<path d="M27 28.509h-27v-21.007h27v21.007zM1 8.502v13.317l6.5-6.565 7.125 8.127 4.937-3 6.437 5.564v-17.444h-25zM26 27.508v-0.25l-6.562-5.627-5.062 3.001-6.875-7.877-6.5 6.44v4.314h25zM4.5 3.5h27.5v21.007h-4.5v-1.001h3.5v-19.006h-25.5v2.501h-1v-3.501zM17 14.504c0-0.834 0.291-1.542 0.875-2.126 0.583-0.584 1.29-0.875 2.125-0.875 0.833 0 1.541 0.291 2.125 0.875s0.875 1.292 0.875 2.126-0.292 1.542-0.875 2.125c-0.584 0.584-1.292 0.875-2.125 0.875-0.834 0-1.542-0.291-2.125-0.875-0.584-0.583-0.875-1.292-0.875-2.125zM18 14.504c0 0.584 0.188 1.062 0.563 1.438s0.854 0.563 1.438 0.563c0.583 0 1.062-0.187 1.438-0.563s0.562-0.854 0.562-1.438-0.187-1.063-0.562-1.438c-0.375-0.375-0.855-0.563-1.438-0.563-0.584 0-1.062 0.187-1.438 0.563s-0.563 0.855-0.563 1.438z"></path>
</symbol>
<symbol id="play" viewBox="0 0 32 32">
<path d="M13.875 10.125l7.125 5.5v0.75l-7.125 5.5-0.875-0.375v-11l0.875-0.375zM14 20.5l5.688-4.5-5.688-4.5v9zM32 16c0 4.417-1.562 8.188-4.688 11.313s-6.896 4.688-11.312 4.688c-4.417 0-8.188-1.563-11.312-4.688s-4.688-6.896-4.688-11.313c0-4.416 1.562-8.187 4.688-11.312s6.895-4.688 11.312-4.688c4.416 0 8.188 1.562 11.312 4.688s4.688 6.896 4.688 11.312zM31 16c0-4.083-1.459-7.625-4.375-10.625-3-2.916-6.542-4.375-10.625-4.375-4.084 0-7.625 1.459-10.625 4.375-2.917 3-4.375 6.542-4.375 10.625 0 4.084 1.458 7.625 4.375 10.625 3 2.917 6.541 4.375 10.625 4.375 4.083 0 7.625-1.458 10.625-4.375 2.916-3 4.375-6.541 4.375-10.625z"></path>
</symbol>
<symbol id="present" viewBox="0 0 32 32">
<path d="M31.68 13.055h-1.227v16.928h-28.946v-16.928h-1.227v-4.863h9.996c-0.613-0.697-0.92-1.498-0.92-2.401 0-1.025 0.347-1.887 1.043-2.585 0.695-0.698 1.553-1.047 2.576-1.047 1.349 0 2.35 0.513 3.005 1.538 0.654-1.025 1.656-1.538 3.005-1.538 1.022 0 1.88 0.349 2.576 1.047 0.695 0.698 1.042 1.56 1.042 2.585 0 0.903-0.307 1.704-0.92 2.401h9.997v4.863zM17.299 4.068c-0.471 0.493-0.705 1.067-0.705 1.724v2.401h2.391c0.654 0 1.227-0.236 1.717-0.708s0.736-1.036 0.736-1.693c0-0.697-0.236-1.282-0.705-1.754-0.471-0.471-1.053-0.708-1.748-0.708-0.654 0-1.217 0.247-1.686 0.739zM11.258 7.485c0.491 0.472 1.063 0.708 1.717 0.708h2.392v-2.401c0-0.656-0.236-1.231-0.705-1.724-0.471-0.493-1.033-0.739-1.687-0.739-0.696 0-1.278 0.237-1.748 0.708-0.471 0.472-0.705 1.057-0.705 1.754 0 0.657 0.245 1.222 0.736 1.693zM1.507 11.824h13.86v-2.401h-13.86v2.401zM2.672 28.814h12.695v-15.758h-12.695v15.758zM29.288 13.055h-12.695v15.758h12.695v-15.758zM30.453 9.424h-13.86v2.401h13.86v-2.401z"></path>
</symbol>
<symbol id="project" viewBox="0 0 32 32">
<path d="M3.967 29.451h27.26v1.229h-28.488v-4.976h-2.456v-1.229h2.456v-4.976h-2.456v-1.229h2.456v-4.915h-2.456v-1.229h2.456v-4.976h-2.456v-1.229h2.456v-4.976h1.228v19.352l8.718-10.321 6.139 6.205 11.911-14.376 0.983 0.737-12.893 15.358-6.139-6.143-8.718 10.505v7.187z"></path>
</symbol>
<symbol id="radio" viewBox="0 0 32 32">
<path d="M31.91 16.992c0 4.176-1.456 7.724-4.366 10.646-2.914 2.922-6.448 4.384-10.608 4.384s-7.694-1.462-10.606-4.384c-2.912-2.922-4.368-6.47-4.368-10.646s1.456-7.724 4.368-10.646c2.912-2.922 6.446-4.384 10.606-4.384s7.694 1.462 10.608 4.384c2.91 2.922 4.366 6.47 4.366 10.646zM29.414 16.992c0-3.444-1.222-6.392-3.664-8.846-2.446-2.452-5.382-3.68-8.814-3.68s-6.37 1.228-8.812 3.68c-2.444 2.454-3.666 5.402-3.666 8.846s1.222 6.394 3.666 8.846c2.442 2.452 5.38 3.678 8.812 3.678s6.368-1.226 8.814-3.678c2.442-2.452 3.664-5.402 3.664-8.846zM16.936 9.476c2.080 0 3.848 0.732 5.304 2.192 1.454 1.462 2.184 3.236 2.184 5.324s-0.73 3.862-2.184 5.322c-1.456 1.462-3.224 2.192-5.304 2.192s-3.848-0.73-5.302-2.192c-1.458-1.46-2.184-3.234-2.184-5.322s0.726-3.862 2.184-5.324c1.454-1.46 3.222-2.192 5.302-2.192z"></path>
</symbol>
<symbol id="revisions" viewBox="0 0 32 32">
<path d="M30.069 5.399c-0.485 0.587-1.108 0.957-1.872 1.11v22.267h-1.298v-22.267c-0.763-0.153-1.388-0.535-1.871-1.148-0.485-0.612-0.726-1.301-0.726-2.066 0-0.918 0.317-1.695 0.955-2.334 0.636-0.637 1.413-0.956 2.329-0.956 0.865 0 1.616 0.319 2.253 0.956 0.636 0.639 0.955 1.416 0.955 2.334 0 0.816-0.242 1.518-0.726 2.104zM28.923 4.711c0.382-0.383 0.573-0.854 0.573-1.415s-0.191-1.033-0.573-1.416c-0.381-0.383-0.828-0.574-1.336-0.574-0.561 0-1.031 0.191-1.413 0.574s-0.573 0.855-0.573 1.416c0 0.562 0.191 1.032 0.573 1.415s0.852 0.574 1.413 0.574c0.508 0 0.955-0.191 1.336-0.574zM6.621 26.021c0.483 0.613 0.726 1.301 0.726 2.066 0 0.918-0.319 1.697-0.955 2.334-0.637 0.639-1.413 0.957-2.329 0.957-0.867 0-1.617-0.318-2.253-0.957-0.637-0.637-0.955-1.416-0.955-2.334 0-0.815 0.241-1.517 0.726-2.104 0.483-0.586 1.108-0.956 1.871-1.11v-22.267h1.298v22.267c0.764 0.153 1.387 0.535 1.872 1.147zM5.475 29.503c0.381-0.383 0.573-0.854 0.573-1.416 0-0.56-0.191-1.033-0.573-1.416s-0.854-0.573-1.413-0.573c-0.509 0-0.955 0.191-1.337 0.573s-0.573 0.855-0.573 1.416c0 0.562 0.191 1.033 0.573 1.416s0.827 0.573 1.337 0.573c0.56 0 1.031-0.191 1.413-0.573zM18.383 13.625c0.483 0.613 0.726 1.301 0.726 2.066s-0.242 1.454-0.726 2.066c-0.485 0.613-1.108 0.995-1.872 1.148v9.871h-1.375v-9.871c-0.763-0.153-1.388-0.535-1.871-1.148-0.485-0.612-0.726-1.3-0.726-2.066s0.241-1.454 0.726-2.066c0.483-0.612 1.108-0.995 1.871-1.148v-9.87h1.375v9.87c0.764 0.153 1.387 0.536 1.872 1.148zM17.81 15.691c0-0.509-0.204-0.969-0.611-1.377-0.408-0.408-0.867-0.612-1.375-0.612-0.509 0-0.968 0.204-1.375 0.612-0.408 0.409-0.611 0.868-0.611 1.377 0 0.511 0.203 0.969 0.611 1.377 0.407 0.409 0.865 0.612 1.375 0.612 0.508 0 0.967-0.203 1.375-0.612 0.407-0.408 0.611-0.867 0.611-1.377z"></path>
</symbol>
<symbol id="subscr" viewBox="0 0 32 32">
<path d="M31.972 5.305c0 1.343-0.464 2.477-1.389 3.403-0.926 0.927-2.037 1.389-3.333 1.389-1.805 0-3.172-0.787-4.097-2.362l-13.82 5.834c0.092 0.463 0.139 0.88 0.139 1.25 0 0.788-0.185 1.552-0.556 2.292l8.889 6.388c0.972-1.064 2.153-1.597 3.542-1.597 1.295 0 2.406 0.476 3.333 1.423 0.925 0.95 1.388 2.073 1.388 3.369s-0.463 2.408-1.388 3.333c-0.927 0.926-2.038 1.388-3.333 1.388-1.297 0-2.408-0.462-3.333-1.388-0.927-0.925-1.389-2.037-1.389-3.333 0-0.879 0.162-1.62 0.486-2.222l-8.889-6.459c-0.927 1.020-2.084 1.528-3.472 1.528-1.297 0-2.408-0.452-3.333-1.354-0.927-0.903-1.389-2.025-1.389-3.369 0-1.341 0.462-2.465 1.389-3.367 0.925-0.903 2.036-1.355 3.333-1.355 1.851 0 3.217 0.788 4.097 2.361l13.889-5.833c-0.139-0.417-0.208-0.856-0.208-1.32 0-1.295 0.462-2.407 1.388-3.333s2.037-1.389 3.333-1.389 2.407 0.464 3.333 1.389c0.925 0.926 1.389 2.038 1.389 3.333v0zM17.805 26.694c0 0.972 0.348 1.805 1.042 2.5s1.528 1.042 2.5 1.042c0.972 0 1.805-0.347 2.5-1.042s1.042-1.527 1.042-2.5c0-1.018-0.348-1.876-1.042-2.569-0.694-0.695-1.528-1.043-2.5-1.043s-1.806 0.348-2.5 1.043c-0.694 0.693-1.042 1.551-1.042 2.569v0zM8.292 14.819c0-0.972-0.348-1.805-1.042-2.5s-1.528-1.042-2.5-1.042c-0.972 0-1.806 0.347-2.5 1.042s-1.042 1.528-1.042 2.5c0 0.972 0.348 1.806 1.042 2.5s1.528 1.042 2.5 1.042c0.972 0 1.805-0.348 2.5-1.042s1.042-1.528 1.042-2.5zM30.792 5.305c0-0.972-0.348-1.805-1.042-2.5s-1.528-1.042-2.5-1.042c-0.972 0-1.805 0.348-2.5 1.042s-1.042 1.527-1.042 2.5c0 1.020 0.347 1.876 1.042 2.57s1.527 1.042 2.5 1.042 1.806-0.348 2.5-1.042c0.694-0.694 1.042-1.55 1.042-2.57v0z"></path>
</symbol>
<symbol id="twitter" viewBox="0 0 32 32">
<path d="M30.251 1.749c1.165 1.167 1.749 2.583 1.749 4.25v20c0 1.666-0.585 3.085-1.749 4.25-1.167 1.167-2.586 1.749-4.252 1.749h-20c-1.666 0-3.083-0.582-4.25-1.749-1.167-1.165-1.749-2.583-1.749-4.25v-20c0-1.666 0.582-3.083 1.749-4.25s2.583-1.751 4.25-1.751h20c1.666 0 3.085 0.585 4.252 1.751zM25.937 10.374c-0.585 0.25-1.333 0.459-2.249 0.625 0.875-0.54 1.436-1.271 1.687-2.189-0.751 0.461-1.585 0.772-2.5 0.939-0.751-0.832-1.709-1.25-2.876-1.25-1.084 0-2.012 0.397-2.782 1.188s-1.156 1.709-1.156 2.75c0 0.207 0.043 0.521 0.126 0.937-3.334-0.207-6.042-1.583-8.126-4.124-0.373 0.666-0.561 1.333-0.561 1.999 0 1.376 0.604 2.46 1.811 3.249-0.666 0-1.271-0.164-1.811-0.499v0.062c0 0.917 0.301 1.741 0.905 2.47s1.365 1.197 2.283 1.404c-0.501 0.085-0.855 0.128-1.062 0.128-0.335 0-0.585-0.021-0.751-0.064 0.582 1.749 1.813 2.667 3.689 2.75-1.459 1.124-3.085 1.687-4.875 1.687-0.126 0-0.292-0.011-0.501-0.032-0.209-0.019-0.354-0.030-0.437-0.030 1.833 1.167 3.834 1.751 6.001 1.751 3.415 0 6.144-1.156 8.186-3.471 2.042-2.313 3.063-4.885 3.063-7.718 0-0.083-0.011-0.177-0.032-0.282-0.021-0.102-0.030-0.177-0.030-0.218 0.749-0.501 1.414-1.188 1.999-2.063v0z"></path>
</symbol>
<symbol id="twitter-ft" viewBox="0 0 32 32">
<path d="M31.879 7.048c-0.323 0.645-0.626 1.088-0.907 1.331-0.566 0.363-0.998 0.837-1.301 1.42-0.302 0.585-0.505 1.111-0.605 1.573-0.101 0.465-0.192 1.079-0.271 1.845-0.404 3.75-1.886 7.077-4.446 9.98-2.561 2.904-5.676 4.759-9.345 5.565-4.717 1.049-9.073 0.363-13.064-2.057-0.040-0.038-0.152-0.1-0.332-0.181-0.182-0.081-0.293-0.14-0.333-0.182-0.040-0.040-0.111-0.131-0.212-0.273-0.1-0.14-0.091-0.271 0.031-0.393 0.039-0.16 0.11-0.271 0.212-0.331 0.1-0.062 0.201-0.082 0.302-0.062 0.1 0.022 0.221 0.041 0.362 0.062 0.141 0.020 0.252 0.029 0.332 0.029 2.338 0.243 4.194 0.082 5.565-0.483 0.605-0.161 0.968-0.061 1.089 0.302 0.081 0.362-0.162 0.626-0.726 0.787-0.363 0.121-0.898 0.271-1.603 0.453-0.706 0.182-1.26 0.333-1.663 0.453 2.298 0.928 4.495 1.331 6.592 1.21 4.436-0.242 8.064-1.763 10.887-4.566 2.822-2.803 4.556-6.159 5.202-10.071 0.081-0.403 0.121-0.685 0.121-0.846 0-0.082 0-0.283 0-0.606 0-0.322 0-0.534 0-0.635 0-0.1 0.010-0.302 0.031-0.605 0.020-0.302 0.060-0.513 0.121-0.635 0.061-0.121 0.13-0.292 0.212-0.514 0.081-0.221 0.191-0.393 0.332-0.514s0.312-0.252 0.514-0.393c0.201-0.141 0.423-0.271 0.666-0.393-0.082-0.040-0.162-0.1-0.243-0.182l-0.121-0.060c-0.121 0-0.313 0.040-0.574 0.121-0.263 0.081-0.484 0.111-0.666 0.091-0.182-0.020-0.332-0.152-0.453-0.393-0.122-0.243-0.132-0.433-0.031-0.574 0.1-0.141 0.273-0.282 0.514-0.424 0.243-0.14 0.403-0.251 0.484-0.332l0.363-0.544-0.182-0.183c-1.17 0.484-2.379 0.283-3.629-0.604-1.734-1.17-3.538-1.249-5.413-0.243-1.875 1.010-2.853 2.582-2.934 4.717-0.081 1.251-0.222 1.966-0.423 2.148-0.202 0.182-0.948 0.151-2.238-0.091-3.508-0.605-6.894-2.42-10.162-5.444-0.524 0.808-0.675 1.775-0.453 2.904 0.221 1.129 0.735 2.138 1.542 3.025 0.081 0.081 0.243 0.191 0.484 0.332s0.383 0.263 0.423 0.363c0.040 0.101 0.040 0.293 0 0.574-0.121 0.242-0.273 0.384-0.453 0.424-0.182 0.040-0.424 0.009-0.726-0.092-0.302-0.1-0.515-0.151-0.636-0.151-0.242-0.081-0.463-0.14-0.665-0.182 0.362 2.098 1.491 3.569 3.387 4.415l0.484 0.122c0.362 0.082 0.584 0.182 0.665 0.302s0.1 0.283 0.061 0.484c-0.082 0.362-0.605 0.584-1.573 0.665l-0.605 0.121c0.727 1.492 1.956 2.46 3.69 2.904h0.423c0.039 0 0.161 0.021 0.362 0.060 0.201 0.040 0.343 0.082 0.424 0.122 0.079 0.040 0.16 0.11 0.242 0.211 0.081 0.101 0.1 0.253 0.061 0.454-0.082 0.445-0.505 0.565-1.271 0.363-2.017-0.363-3.528-1.351-4.536-2.965-0.041-0.039-0.122-0.151-0.243-0.331-0.121-0.182-0.202-0.313-0.242-0.393-0.041-0.081-0.101-0.201-0.182-0.363-0.082-0.161-0.121-0.302-0.121-0.423 0-0.122 0.009-0.262 0.030-0.423 0.020-0.161 0.070-0.323 0.152-0.484 0-0.201 0.009-0.323 0.030-0.362 0.020-0.040-0.071-0.141-0.273-0.303l-0.242-0.181c-1.049-1.049-1.694-2.339-1.935-3.871 0-0.040-0.021-0.162-0.061-0.363s-0.060-0.322-0.060-0.363c0-0.039 0-0.13 0-0.273 0-0.14 0.030-0.242 0.091-0.301 0.060-0.061 0.151-0.121 0.271-0.182s0.282-0.11 0.484-0.152c0.363-0.039 0.403-0.242 0.121-0.605-0.082-0.081-0.121-0.14-0.121-0.182-0.888-1.814-0.968-3.708-0.242-5.685 0.242-0.685 0.493-1.048 0.756-1.089 0.262-0.039 0.635 0.202 1.119 0.726 2.621 2.863 5.705 4.678 9.254 5.444 0.605 0.121 1.028 0.111 1.27-0.031 0.243-0.14 0.383-0.513 0.423-1.118 0.363-2.5 1.553-4.334 3.57-5.505 2.015-1.169 4.011-1.169 5.987 0 1.694 0.968 3.287 0.968 4.778 0 0.523-0.242 0.907-0.242 1.149 0 0.201 0.202 0.161 0.566-0.121 1.089-0.040 0.162-0.121 0.363-0.242 0.605-0.121 0.243-0.202 0.423-0.242 0.545 0.16 0.161 0.382 0.182 0.665 0.060 0.121-0.040 0.201-0.060 0.242-0.060v0c0.645 0 0.827 0.282 0.545 0.846v0z"></path>
</symbol>
</defs>
</svg>
